<svg width="306" height="315" viewBox="0 0 306 315" fill="none" xmlns="http://www.w3.org/2000/svg">
<rect x="116.608" width="216" height="240" rx="4" transform="rotate(29.0694 116.608 0)" fill="#E1E7FF"/>
<path d="M67.0499 89.1513L255.841 194.099L190.734 311.219C189.661 313.15 187.226 313.845 185.295 312.772L3.49617 211.711C1.56531 210.638 0.870167 208.202 1.94352 206.272L67.0499 89.1513Z" fill="#B1BCE9"/>
<rect x="75.2013" y="117.709" width="61" height="13" rx="6.5" transform="rotate(29.0694 75.2013 117.709)" fill="#6663FA"/>
<rect x="62.1806" y="139.074" width="148" height="13" rx="6.5" transform="rotate(29.0694 62.1806 139.074)" fill="#E1E7FF"/>
<rect x="49.1598" y="160.439" width="88" height="13" rx="6.5" transform="rotate(29.0694 49.1598 160.439)" fill="#E1E7FF"/>
<rect x="154.324" y="263.52" width="39" height="13" rx="6.5" transform="rotate(29.0694 154.324 263.52)" fill="#7482B9"/>
<rect x="108" y="237.769" width="39" height="13" rx="6.5" transform="rotate(29.0694 108 237.769)" fill="#E1E7FF"/>
<g clip-path="url(#clip0_2_226)">
<path d="M177.069 100.398L189.087 107.079C189.328 107.212 189.569 107.202 189.812 107.049C190.054 106.895 190.151 106.674 190.102 106.384L189.253 100.131C189.222 99.9036 189.106 99.7344 188.906 99.6231C188.705 99.5117 188.501 99.5028 188.291 99.5962L182.845 102.035L182.275 97.8251C182.244 97.5981 182.128 97.4289 181.928 97.3175C181.728 97.2062 181.523 97.1972 181.314 97.2907L177.123 99.1693C176.852 99.2805 176.715 99.4797 176.712 99.7669C176.71 100.054 176.829 100.264 177.069 100.398ZM171.993 103.869C171.333 103.502 170.897 102.952 170.688 102.22C170.479 101.487 170.559 100.79 170.926 100.129L180.279 83.3042C180.646 82.6432 181.196 82.2079 181.928 81.9982C182.661 81.7898 183.358 81.8693 184.019 82.2367L200.844 91.5897C201.505 91.9571 201.94 92.5069 202.15 93.2391C202.358 93.9717 202.279 94.6684 201.911 95.3294L192.558 112.155C192.191 112.816 191.641 113.251 190.909 113.461C190.176 113.669 189.48 113.589 188.819 113.222L171.993 103.869ZM173.33 101.465L190.155 110.818L199.508 93.9933L182.683 84.6403L173.33 101.465Z" fill="#B1BCE9"/>
</g>
<defs>
<clipPath id="clip0_2_226">
<rect width="33" height="33" fill="white" transform="translate(180.014 75.291) rotate(29.0694)"/>
</clipPath>
</defs>
</svg>
