<svg width="1808" height="890" viewBox="0 0 1808 890" fill="none" xmlns="http://www.w3.org/2000/svg">
<g clip-path="url(#clip0_1_3)">
<rect width="1808" height="890" fill="url(#paint0_linear_1_3)"/>
<g clip-path="url(#clip1_1_3)">
<path d="M1320.61 439.367L1332.63 446.039C1332.87 446.172 1333.11 446.162 1333.36 446.008C1333.6 445.854 1333.69 445.633 1333.65 445.344L1332.79 439.09C1332.76 438.863 1332.64 438.694 1332.44 438.583C1332.24 438.472 1332.04 438.463 1331.83 438.557L1326.38 441L1325.81 436.79C1325.78 436.563 1325.66 436.394 1325.46 436.283C1325.26 436.172 1325.06 436.163 1324.85 436.256L1320.66 438.138C1320.39 438.25 1320.25 438.449 1320.25 438.736C1320.25 439.023 1320.37 439.234 1320.61 439.367ZM1315.53 442.842C1314.87 442.475 1314.44 441.925 1314.23 441.193C1314.02 440.461 1314.1 439.764 1314.46 439.103L1323.8 422.271C1324.17 421.609 1324.72 421.174 1325.45 420.963C1326.19 420.755 1326.88 420.834 1327.54 421.2L1344.38 430.541C1345.04 430.908 1345.47 431.457 1345.68 432.189C1345.89 432.921 1345.81 433.618 1345.45 434.28L1336.11 451.112C1335.74 451.773 1335.19 452.209 1334.46 452.419C1333.72 452.628 1333.03 452.549 1332.37 452.182L1315.53 442.842ZM1316.87 440.437L1333.7 449.777L1343.04 432.945L1326.21 423.605L1316.87 440.437Z" fill="#E1E7FF"/>
</g>
<rect x="1389.58" y="221.036" width="222" height="276" rx="6" transform="rotate(29.0259 1389.58 221.036)" stroke="#E1E7FF" stroke-width="4"/>
<path fill-rule="evenodd" clip-rule="evenodd" d="M1580.98 329.53L1388.61 222.785L1372.11 252.514L1564.48 359.26L1580.98 329.53ZM1400.42 239.631C1396.32 237.353 1391.14 238.834 1388.86 242.939C1386.59 247.044 1388.07 252.218 1392.17 254.495L1442.89 282.637C1446.99 284.915 1452.17 283.434 1454.44 279.329C1456.72 275.224 1455.24 270.05 1451.14 267.773L1400.42 239.631Z" fill="#E1E7FF"/>
<rect x="1374.85" y="282.623" width="102" height="16" rx="8" transform="rotate(29.0259 1374.85 282.623)" fill="#E1E7FF"/>
<rect x="1361.75" y="306.232" width="183" height="16" rx="8" transform="rotate(29.0259 1361.75 306.232)" fill="#E1E7FF"/>
<rect x="1348.65" y="329.84" width="183" height="16" rx="8" transform="rotate(29.0259 1348.65 329.84)" fill="#E1E7FF"/>
<rect x="1335.55" y="353.449" width="90" height="16" rx="8" transform="rotate(29.0259 1335.55 353.449)" fill="#E1E7FF"/>
<rect x="1391.33" y="419.857" width="102" height="16" rx="8" transform="rotate(29.0259 1391.33 419.857)" fill="#E1E7FF"/>
<rect x="1378.23" y="443.466" width="52" height="16" rx="8" transform="rotate(29.0259 1378.23 443.466)" fill="#E1E7FF"/>
<rect x="1356.88" y="481.94" width="34" height="16" rx="8" transform="rotate(29.0259 1356.88 481.94)" fill="#E1E7FF"/>
<rect x="1416.34" y="514.934" width="34" height="16" rx="8" transform="rotate(29.0259 1416.34 514.934)" fill="#E1E7FF"/>
<rect x="1322.06" y="380.846" width="68" height="89" rx="6.5" transform="rotate(29.0259 1322.06 380.846)" stroke="#E1E7FF" stroke-width="3"/>
<g clip-path="url(#clip2_1_3)">
<path d="M1252.08 523.709L1264.1 530.38C1264.34 530.514 1264.58 530.504 1264.82 530.35C1265.07 530.196 1265.16 529.975 1265.11 529.685L1264.26 523.432C1264.23 523.205 1264.11 523.036 1263.91 522.925C1263.71 522.814 1263.51 522.805 1263.3 522.899L1257.85 525.342L1257.28 521.132C1257.25 520.905 1257.13 520.736 1256.93 520.625C1256.73 520.514 1256.53 520.505 1256.32 520.598L1252.13 522.48C1251.86 522.592 1251.72 522.791 1251.72 523.078C1251.72 523.365 1251.84 523.575 1252.08 523.709ZM1247 527.184C1246.34 526.817 1245.91 526.267 1245.7 525.535C1245.49 524.803 1245.57 524.106 1245.93 523.445L1255.27 506.613C1255.64 505.951 1256.19 505.516 1256.92 505.305C1257.65 505.096 1258.35 505.175 1259.01 505.542L1275.84 514.883C1276.51 515.249 1276.94 515.799 1277.15 516.531C1277.36 517.263 1277.28 517.96 1276.92 518.621L1267.58 535.454C1267.21 536.115 1266.66 536.551 1265.93 536.761C1265.19 536.97 1264.5 536.891 1263.84 536.524L1247 527.184ZM1248.34 524.779L1265.17 534.119L1274.51 517.287L1257.68 507.947L1248.34 524.779Z" fill="#E1E7FF"/>
</g>
<rect x="1248.39" y="475.486" width="222" height="276" rx="6" transform="rotate(29.0259 1248.39 475.486)" stroke="#E1E7FF" stroke-width="4"/>
<rect x="1233.65" y="537.073" width="102" height="16" rx="8" transform="rotate(29.0259 1233.65 537.073)" fill="#E1E7FF"/>
<rect x="1220.55" y="560.682" width="183" height="16" rx="8" transform="rotate(29.0259 1220.55 560.682)" fill="#E1E7FF"/>
<rect x="1207.45" y="584.291" width="183" height="16" rx="8" transform="rotate(29.0259 1207.45 584.291)" fill="#E1E7FF"/>
<rect x="1194.35" y="607.9" width="90" height="16" rx="8" transform="rotate(29.0259 1194.35 607.9)" fill="#E1E7FF"/>
<rect x="1179.31" y="635.006" width="183" height="16" rx="8" transform="rotate(29.0259 1179.31 635.006)" fill="#E1E7FF"/>
<rect x="1164.27" y="662.112" width="171" height="16" rx="8" transform="rotate(29.0259 1164.27 662.112)" fill="#E1E7FF"/>
<rect x="1147.48" y="698.544" width="34" height="16" rx="8" transform="rotate(29.0259 1147.48 698.544)" fill="#E1E7FF"/>
<rect x="1275.15" y="769.384" width="34" height="16" rx="8" transform="rotate(29.0259 1275.15 769.384)" fill="#E1E7FF"/>
<rect x="1019.8" y="388.671" width="222" height="276" rx="6" transform="rotate(29.0259 1019.8 388.671)" stroke="#E1E7FF" stroke-width="4"/>
<rect x="1054.92" y="508.801" width="111" height="16" rx="8" transform="rotate(29.0259 1054.92 508.801)" fill="#E1E7FF"/>
<rect x="1041.82" y="532.41" width="111" height="16" rx="8" transform="rotate(29.0259 1041.82 532.41)" fill="#E1E7FF"/>
<rect x="1028.72" y="556.019" width="90" height="16" rx="8" transform="rotate(29.0259 1028.72 556.019)" fill="#E1E7FF"/>
<rect x="1013.68" y="583.125" width="111" height="16" rx="8" transform="rotate(29.0259 1013.68 583.125)" fill="#E1E7FF"/>
<rect x="998.639" y="610.231" width="99" height="16" rx="8" transform="rotate(29.0259 998.639 610.231)" fill="#E1E7FF"/>
<path fill-rule="evenodd" clip-rule="evenodd" d="M1021.06 390.515L1074.4 420.113L941.94 658.824L888.602 629.227L1021.06 390.515ZM1021.53 442.236C1028.53 446.122 1037.35 443.595 1041.24 436.593C1045.13 429.591 1042.6 420.764 1035.6 416.879C1028.59 412.993 1019.77 415.52 1015.88 422.522C1012 429.524 1014.52 438.351 1021.53 442.236ZM1020.56 443.985C1028.52 448.406 1038.57 445.531 1042.99 437.563C1047.41 429.595 1044.54 419.551 1036.57 415.13C1028.6 410.708 1018.56 413.583 1014.13 421.551C1009.71 429.52 1012.59 439.563 1020.56 443.985ZM991.966 473.866C988.103 471.722 983.233 473.116 981.089 476.98C978.946 480.843 980.34 485.713 984.203 487.857L1011.31 502.898C1015.17 505.042 1020.04 503.648 1022.19 499.784C1024.33 495.921 1022.94 491.051 1019.07 488.908L991.966 473.866ZM978.866 497.475C975.002 495.331 970.133 496.725 967.989 500.589C965.845 504.452 967.239 509.322 971.102 511.465L998.209 526.507C1002.07 528.651 1006.94 527.257 1009.09 523.393C1011.23 519.53 1009.84 514.66 1005.97 512.516L978.866 497.475ZM954.888 524.197C957.032 520.334 961.902 518.94 965.765 521.084L992.871 536.125C996.735 538.269 998.129 543.139 995.985 547.002C993.841 550.865 988.972 552.259 985.108 550.116L958.002 535.074C954.138 532.931 952.744 528.061 954.888 524.197Z" fill="#E1E7FF"/>
<line x1="1034.71" y1="479.284" x2="1177.23" y2="558.373" stroke="#E1E7FF" stroke-width="4"/>
<g clip-path="url(#clip3_1_3)">
<path d="M1113.85 490.463L1125.87 497.134C1126.11 497.268 1126.35 497.258 1126.59 497.104C1126.84 496.95 1126.93 496.729 1126.88 496.439L1126.03 490.186C1126 489.959 1125.88 489.79 1125.68 489.679C1125.48 489.568 1125.28 489.559 1125.07 489.653L1119.62 492.096L1119.05 487.886C1119.02 487.659 1118.9 487.49 1118.7 487.379C1118.5 487.268 1118.3 487.259 1118.09 487.352L1113.9 489.234C1113.63 489.346 1113.49 489.545 1113.49 489.832C1113.49 490.119 1113.61 490.329 1113.85 490.463ZM1108.77 493.938C1108.11 493.571 1107.68 493.021 1107.47 492.289C1107.26 491.557 1107.34 490.86 1107.7 490.199L1117.04 473.367C1117.41 472.705 1117.96 472.27 1118.69 472.059C1119.42 471.85 1120.12 471.929 1120.78 472.296L1137.61 481.637C1138.28 482.003 1138.71 482.553 1138.92 483.285C1139.13 484.017 1139.05 484.714 1138.68 485.375L1129.34 502.208C1128.98 502.869 1128.43 503.305 1127.7 503.515C1126.96 503.724 1126.27 503.645 1125.61 503.278L1108.77 493.938ZM1110.11 491.533L1126.94 500.873L1136.28 484.041L1119.45 474.701L1110.11 491.533Z" fill="#E1E7FF"/>
</g>
<rect x="940.171" y="33.414" width="222" height="276" rx="6" transform="rotate(29.0259 940.171 33.414)" stroke="#E1E7FF" stroke-width="4"/>
<rect x="895.542" y="134.45" width="111" height="16" rx="8" transform="rotate(29.0259 895.542 134.45)" fill="#E1E7FF"/>
<rect x="881.956" y="158.933" width="175" height="16" rx="8" transform="rotate(29.0259 881.956 158.933)" fill="#E1E7FF"/>
<path fill-rule="evenodd" clip-rule="evenodd" d="M939.685 34.2884L1132.05 141.034L1096.15 205.739L1082.39 173.078C1083.58 172.105 1084.61 170.894 1085.4 169.467C1088.75 163.431 1086.57 155.822 1080.53 152.472C1074.5 149.122 1066.89 151.3 1063.54 157.337C1063.48 157.445 1063.42 157.554 1063.36 157.664L1023.81 152.296C1025.78 146.657 1023.47 140.251 1018.07 137.254C1012.49 134.155 1005.56 135.787 1001.9 140.829L979.452 121.902C980.297 116.83 977.936 111.552 973.183 108.915C967.147 105.565 959.538 107.743 956.188 113.78C955.774 114.527 955.444 115.298 955.196 116.082L936.264 118.493C936.624 113.773 934.273 109.053 929.863 106.606C925.719 104.306 920.833 104.612 917.094 106.983L910.33 87.1896L939.685 34.2884Z" fill="#E1E7FF"/>
<circle cx="923.798" cy="117.536" r="8.5" transform="rotate(29.0259 923.798 117.536)" fill="#E1E7FF"/>
<circle cx="967.118" cy="119.845" r="8.5" transform="rotate(29.0259 967.118 119.845)" fill="#E1E7FF"/>
<circle cx="1012.01" cy="148.184" r="8.5" transform="rotate(29.0259 1012.01 148.184)" fill="#E1E7FF"/>
<circle cx="1074.47" cy="163.402" r="8.5" transform="rotate(29.0259 1074.47 163.402)" fill="#E1E7FF"/>
<rect x="872.065" y="191.185" width="83" height="83" rx="3" transform="rotate(29.0259 872.065 191.185)" stroke="#E1E7FF" stroke-width="2"/>
<rect x="962.128" y="241.161" width="83" height="83" rx="3" transform="rotate(29.0259 962.128 241.161)" stroke="#E1E7FF" stroke-width="2"/>
<rect x="798.587" y="286.505" width="222" height="276" rx="6" transform="rotate(29.0259 798.587 286.505)" stroke="#E1E7FF" stroke-width="4"/>
<rect x="804.232" y="311.367" width="102" height="16" rx="8" transform="rotate(29.0259 804.232 311.367)" fill="#E1E7FF"/>
<rect x="791.132" y="334.976" width="183" height="16" rx="8" transform="rotate(29.0259 791.132 334.976)" fill="#E1E7FF"/>
<rect x="778.031" y="358.585" width="183" height="16" rx="8" transform="rotate(29.0259 778.031 358.585)" fill="#E1E7FF"/>
<rect x="764.931" y="382.193" width="90" height="16" rx="8" transform="rotate(29.0259 764.931 382.193)" fill="#E1E7FF"/>
<rect x="749.889" y="409.3" width="183" height="16" rx="8" transform="rotate(29.0259 749.889 409.3)" fill="#E1E7FF"/>
<rect x="705.235" y="458.858" width="218" height="78" transform="rotate(29.0259 705.235 458.858)" fill="#E1E7FF"/>
<g clip-path="url(#clip4_1_3)">
<path d="M541.49 340.977L553.513 347.648C553.754 347.782 553.995 347.772 554.238 347.618C554.48 347.464 554.577 347.243 554.528 346.953L553.673 340.7C553.642 340.473 553.526 340.304 553.326 340.193C553.125 340.082 552.921 340.073 552.711 340.167L547.267 342.61L546.694 338.4C546.663 338.173 546.547 338.004 546.346 337.893C546.146 337.782 545.941 337.773 545.732 337.866L541.543 339.748C541.271 339.86 541.135 340.059 541.133 340.346C541.13 340.633 541.25 340.843 541.49 340.977ZM536.417 344.452C535.756 344.085 535.32 343.535 535.11 342.803C534.901 342.071 534.98 341.374 535.347 340.713L544.687 323.881C545.054 323.219 545.603 322.784 546.335 322.573C547.068 322.364 547.764 322.443 548.426 322.81L565.258 332.151C565.919 332.517 566.355 333.067 566.565 333.799C566.774 334.531 566.695 335.228 566.328 335.889L556.988 352.722C556.621 353.383 556.072 353.819 555.34 354.029C554.607 354.238 553.91 354.159 553.249 353.792L536.417 344.452ZM537.751 342.047L554.583 351.387L563.924 334.555L547.091 325.215L537.751 342.047Z" fill="#E1E7FF"/>
</g>
<rect x="610.464" y="122.646" width="222" height="276" rx="6" transform="rotate(29.0259 610.464 122.646)" stroke="#E1E7FF" stroke-width="4"/>
<path fill-rule="evenodd" clip-rule="evenodd" d="M801.861 231.14L609.493 124.395L592.996 154.124L785.364 260.869L801.861 231.14ZM621.303 141.241C617.198 138.963 612.024 140.444 609.746 144.549C607.468 148.653 608.949 153.828 613.054 156.105L663.769 184.247C667.874 186.525 673.048 185.044 675.326 180.939C677.604 176.834 676.123 171.66 672.018 169.382L621.303 141.241Z" fill="#E1E7FF"/>
<rect x="595.731" y="184.233" width="102" height="16" rx="8" transform="rotate(29.0259 595.731 184.233)" fill="#E1E7FF"/>
<rect x="582.63" y="207.842" width="183" height="16" rx="8" transform="rotate(29.0259 582.63 207.842)" fill="#E1E7FF"/>
<rect x="569.53" y="231.45" width="183" height="16" rx="8" transform="rotate(29.0259 569.53 231.45)" fill="#E1E7FF"/>
<rect x="556.429" y="255.059" width="90" height="16" rx="8" transform="rotate(29.0259 556.429 255.059)" fill="#E1E7FF"/>
<rect x="612.214" y="321.467" width="102" height="16" rx="8" transform="rotate(29.0259 612.214 321.467)" fill="#E1E7FF"/>
<rect x="599.114" y="345.076" width="52" height="16" rx="8" transform="rotate(29.0259 599.114 345.076)" fill="#E1E7FF"/>
<rect x="577.765" y="383.55" width="34" height="16" rx="8" transform="rotate(29.0259 577.765 383.55)" fill="#E1E7FF"/>
<rect x="637.224" y="416.544" width="34" height="16" rx="8" transform="rotate(29.0259 637.224 416.544)" fill="#E1E7FF"/>
<rect x="542.942" y="282.456" width="68" height="89" rx="6.5" transform="rotate(29.0259 542.942 282.456)" stroke="#E1E7FF" stroke-width="3"/>
<rect x="757.966" y="-143.172" width="222" height="276" rx="6" transform="rotate(29.0259 757.966 -143.172)" stroke="#E1E7FF" stroke-width="4"/>
<rect x="793.09" y="-23.0413" width="111" height="16" rx="8" transform="rotate(29.0259 793.09 -23.0413)" fill="#E1E7FF"/>
<rect x="779.989" y="0.567535" width="111" height="16" rx="8" transform="rotate(29.0259 779.989 0.567535)" fill="#E1E7FF"/>
<rect x="766.889" y="24.1763" width="90" height="16" rx="8" transform="rotate(29.0259 766.889 24.1763)" fill="#E1E7FF"/>
<rect x="751.847" y="51.2827" width="111" height="16" rx="8" transform="rotate(29.0259 751.847 51.2827)" fill="#E1E7FF"/>
<rect x="736.806" y="78.3891" width="99" height="16" rx="8" transform="rotate(29.0259 736.806 78.3891)" fill="#E1E7FF"/>
<path fill-rule="evenodd" clip-rule="evenodd" d="M759.23 -141.327L812.568 -111.729L680.107 126.982L626.769 97.3843L759.23 -141.327ZM759.693 -89.6062C766.695 -85.7206 775.521 -88.2472 779.407 -95.2495C783.293 -102.252 780.766 -111.078 773.764 -114.964C766.761 -118.849 757.935 -116.323 754.049 -109.321C750.164 -102.318 752.69 -93.4918 759.693 -89.6062ZM758.722 -87.8574C766.69 -83.4359 776.734 -86.311 781.156 -94.2791C785.577 -102.247 782.702 -112.291 774.734 -116.713C766.766 -121.134 756.722 -118.259 752.301 -110.291C747.879 -102.323 750.754 -92.2789 758.722 -87.8574ZM730.133 -57.9761C726.27 -60.1198 721.4 -58.7259 719.256 -54.8625C717.112 -50.9992 718.506 -46.1294 722.37 -43.9857L749.476 -28.9443C753.339 -26.8005 758.209 -28.1945 760.353 -32.0579C762.497 -35.9212 761.103 -40.7909 757.239 -42.9347L730.133 -57.9761ZM717.032 -34.3673C713.169 -36.511 708.299 -35.1171 706.155 -31.2537C704.012 -27.3904 705.406 -22.5206 709.269 -20.3769L736.375 -5.3355C740.239 -3.19172 745.108 -4.5857 747.252 -8.44905C749.396 -12.3124 748.002 -17.1821 744.139 -19.3259L717.032 -34.3673ZM693.055 -7.64491C695.199 -11.5083 700.068 -12.9022 703.932 -10.7585L731.038 4.28291C734.901 6.42668 736.295 11.2964 734.152 15.1598C732.008 19.0231 727.138 20.4171 723.275 18.2733L696.168 3.23193C692.305 1.08816 690.911 -3.78157 693.055 -7.64491Z" fill="#E1E7FF"/>
<line x1="772.872" y1="-52.5582" x2="915.399" y2="26.5303" stroke="#E1E7FF" stroke-width="4"/>
<rect x="494.924" y="-178.201" width="222" height="276" rx="6" transform="rotate(29.0259 494.924 -178.201)" stroke="#E1E7FF" stroke-width="4"/>
<rect x="446.227" y="-55.4059" width="183" height="16" rx="8" transform="rotate(29.0259 446.227 -55.4059)" fill="#E1E7FF"/>
<rect x="401.573" y="-5.84796" width="218" height="78" transform="rotate(29.0259 401.573 -5.84796)" fill="#E1E7FF"/>
<g clip-path="url(#clip5_1_3)">
<path d="M361.888 124.664L373.911 131.336C374.152 131.469 374.393 131.459 374.636 131.305C374.878 131.152 374.975 130.93 374.926 130.641L374.071 124.388C374.04 124.161 373.924 123.991 373.724 123.88C373.523 123.769 373.319 123.76 373.11 123.854L367.665 126.297L367.092 122.087C367.061 121.86 366.945 121.691 366.745 121.58C366.544 121.469 366.339 121.46 366.13 121.554L361.941 123.435C361.67 123.547 361.533 123.746 361.531 124.033C361.529 124.32 361.648 124.531 361.888 124.664ZM356.815 128.139C356.154 127.772 355.718 127.223 355.508 126.491C355.299 125.758 355.378 125.061 355.745 124.4L365.085 107.568C365.452 106.907 366.001 106.471 366.733 106.261C367.466 106.052 368.163 106.131 368.824 106.498L385.656 115.838C386.317 116.205 386.753 116.754 386.963 117.486C387.172 118.219 387.093 118.916 386.726 119.577L377.386 136.409C377.019 137.07 376.47 137.506 375.738 137.716C375.005 137.925 374.308 137.846 373.647 137.479L356.815 128.139ZM358.149 125.734L374.982 135.075L384.322 118.242L367.49 108.902L358.149 125.734Z" fill="#E1E7FF"/>
</g>
<rect x="358.198" y="76.4417" width="222" height="276" rx="6" transform="rotate(29.0259 358.198 76.4417)" stroke="#E1E7FF" stroke-width="4"/>
<rect x="343.465" y="138.029" width="102" height="16" rx="8" transform="rotate(29.0259 343.465 138.029)" fill="#E1E7FF"/>
<rect x="330.364" y="161.637" width="183" height="16" rx="8" transform="rotate(29.0259 330.364 161.637)" fill="#E1E7FF"/>
<rect x="317.264" y="185.246" width="183" height="16" rx="8" transform="rotate(29.0259 317.264 185.246)" fill="#E1E7FF"/>
<rect x="304.163" y="208.855" width="90" height="16" rx="8" transform="rotate(29.0259 304.163 208.855)" fill="#E1E7FF"/>
<rect x="289.122" y="235.961" width="183" height="16" rx="8" transform="rotate(29.0259 289.122 235.961)" fill="#E1E7FF"/>
<rect x="274.08" y="263.068" width="171" height="16" rx="8" transform="rotate(29.0259 274.08 263.068)" fill="#E1E7FF"/>
<rect x="257.295" y="299.499" width="34" height="16" rx="8" transform="rotate(29.0259 257.295 299.499)" fill="#E1E7FF"/>
<rect x="384.958" y="370.339" width="34" height="16" rx="8" transform="rotate(29.0259 384.958 370.339)" fill="#E1E7FF"/>
<rect x="1085.05" y="-233.859" width="222" height="276" rx="6" transform="rotate(29.0259 1085.05 -233.859)" stroke="#E1E7FF" stroke-width="4"/>
<rect x="1015.97" y="-74.3395" width="183" height="16" rx="8" transform="rotate(29.0259 1015.97 -74.3395)" fill="#E1E7FF"/>
<rect x="1000.93" y="-47.2331" width="171" height="16" rx="8" transform="rotate(29.0259 1000.93 -47.2331)" fill="#E1E7FF"/>
<rect x="984.148" y="-10.8015" width="34" height="16" rx="8" transform="rotate(29.0259 984.148 -10.8015)" fill="#E1E7FF"/>
<rect x="1111.81" y="60.0385" width="34" height="16" rx="8" transform="rotate(29.0259 1111.81 60.0385)" fill="#E1E7FF"/>
<g clip-path="url(#clip6_1_3)">
<path d="M1235.44 77.6055L1247.46 84.2771C1247.7 84.4105 1247.94 84.4004 1248.19 84.2467C1248.43 84.093 1248.53 83.8715 1248.48 83.5821L1247.62 77.329C1247.59 77.102 1247.48 76.9329 1247.28 76.8217C1247.07 76.7105 1246.87 76.7017 1246.66 76.7953L1241.22 79.2387L1240.64 75.0287C1240.61 74.8017 1240.5 74.6326 1240.3 74.5214C1240.1 74.4102 1239.89 74.4014 1239.68 74.495L1235.49 76.3768C1235.22 76.4883 1235.08 76.6875 1235.08 76.9747C1235.08 77.2618 1235.2 77.4721 1235.44 77.6055ZM1230.37 81.0804C1229.7 80.7135 1229.27 80.164 1229.06 79.432C1228.85 78.6996 1228.93 78.0028 1229.3 77.3415L1238.64 60.5093C1239 59.848 1239.55 59.4123 1240.28 59.2021C1241.02 58.9931 1241.71 59.0721 1242.38 59.439L1259.21 68.7792C1259.87 69.1462 1260.3 69.6956 1260.51 70.4277C1260.72 71.1601 1260.64 71.8569 1260.28 72.5181L1250.94 89.3503C1250.57 90.0116 1250.02 90.4474 1249.29 90.6576C1248.56 90.8666 1247.86 90.7876 1247.2 90.4206L1230.37 81.0804ZM1231.7 78.6758L1248.53 88.016L1257.87 71.1838L1241.04 61.8436L1231.7 78.6758Z" fill="#E1E7FF"/>
</g>
<rect x="1304.41" y="-140.725" width="222" height="276" rx="6" transform="rotate(29.0259 1304.41 -140.725)" stroke="#E1E7FF" stroke-width="4"/>
<rect x="1276.58" y="-55.5298" width="183" height="16" rx="8" transform="rotate(29.0259 1276.58 -55.5298)" fill="#E1E7FF"/>
<rect x="1263.48" y="-31.921" width="183" height="16" rx="8" transform="rotate(29.0259 1263.48 -31.921)" fill="#E1E7FF"/>
<rect x="1250.38" y="-8.31216" width="90" height="16" rx="8" transform="rotate(29.0259 1250.38 -8.31216)" fill="#E1E7FF"/>
<rect x="1306.16" y="58.0959" width="102" height="16" rx="8" transform="rotate(29.0259 1306.16 58.0959)" fill="#E1E7FF"/>
<rect x="1293.06" y="81.7047" width="52" height="16" rx="8" transform="rotate(29.0259 1293.06 81.7047)" fill="#E1E7FF"/>
<rect x="1271.71" y="120.178" width="34" height="16" rx="8" transform="rotate(29.0259 1271.71 120.178)" fill="#E1E7FF"/>
<rect x="1331.17" y="153.172" width="34" height="16" rx="8" transform="rotate(29.0259 1331.17 153.172)" fill="#E1E7FF"/>
<rect x="1236.89" y="19.0848" width="68" height="89" rx="6.5" transform="rotate(29.0259 1236.89 19.0848)" stroke="#E1E7FF" stroke-width="3"/>
</g>
<defs>
<linearGradient id="paint0_linear_1_3" x1="1642.89" y1="-18.252" x2="1340.5" y2="773.305" gradientUnits="userSpaceOnUse">
<stop offset="0.180208" stop-color="#F8F9FF"/>
<stop offset="1" stop-color="white"/>
</linearGradient>
<clipPath id="clip0_1_3">
<rect width="1808" height="890" fill="white"/>
</clipPath>
<clipPath id="clip1_1_3">
<rect width="33" height="33" fill="white" transform="translate(1323.53 414.258) rotate(29.0259)"/>
</clipPath>
<clipPath id="clip2_1_3">
<rect width="33" height="33" fill="white" transform="translate(1255 498.6) rotate(29.0259)"/>
</clipPath>
<clipPath id="clip3_1_3">
<rect width="33" height="33" fill="white" transform="translate(1116.77 465.354) rotate(29.0259)"/>
</clipPath>
<clipPath id="clip4_1_3">
<rect width="33" height="33" fill="white" transform="translate(544.416 315.868) rotate(29.0259)"/>
</clipPath>
<clipPath id="clip5_1_3">
<rect width="33" height="33" fill="white" transform="translate(364.814 99.555) rotate(29.0259)"/>
</clipPath>
<clipPath id="clip6_1_3">
<rect width="33" height="33" fill="white" transform="translate(1238.36 52.4963) rotate(29.0259)"/>
</clipPath>
</defs>
</svg>
